# xmcd
#
# Track frame offsets:
# 150
# 16618
# 32389
# 45169
# 61505
# 75667
# 89733
# 104689
# 119983
# 133064
# 146845
# 158787
#
# Disc length: 2336 seconds
#
#
# Revision: 0
# Processed by: cddbd v1.5.2PL0 Copyright (c) Steve Scherf et al.
# Submitted via: FreeRIP 2.951 
#
DISCID=99091e0c
DTITLE=Vinícius and Matheus - Deixe O Amor Te Levar
DYEAR=2006
DGENRE=Sertanejo
TTITLE0=Tô Fora
TTITLE1=Vai
TTITLE2=Boa de Cama
TTITLE3=Não Dá
TTITLE4=Quero Cair na Gandaia
TTITLE5=Valeu
TTITLE6=Não Tem Jeito Coração
TTITLE7=Deixa Eu Te Amar
TTITLE8=Vou Beijar Você
TTITLE9=Acordes e Lamentos
TTITLE10=De Tanto Fazer Nhá Nhá
TTITLE11=Tô Fora - Play Back
EXTD=ramongabriel@walla.com
EXTT0=
EXTT1=
EXTT2=
EXTT3=
EXTT4=
EXTT5=
EXTT6=
EXTT7=
EXTT8=
EXTT9=
EXTT10=
EXTT11=
PLAYORDER=
